<svg width="18" height="20" viewBox="0 0 18 20" fill="none" xmlns="http://www.w3.org/2000/svg">
<path fill-rule="evenodd" clip-rule="evenodd" d="M8.99622 10.9H9.00378H8.99622Z" fill="#185286"/>
<path fill-rule="evenodd" clip-rule="evenodd" d="M8.99622 14.5H9.00378H8.99622Z" fill="#185286"/>
<path fill-rule="evenodd" clip-rule="evenodd" d="M12.3609 10.9H12.3684H12.3609Z" fill="#185286"/>
<path fill-rule="evenodd" clip-rule="evenodd" d="M5.63158 10.9H5.63913H5.63158Z" fill="#185286"/>
<path fill-rule="evenodd" clip-rule="evenodd" d="M5.63158 14.5H5.63913H5.63158Z" fill="#185286"/>
<path d="M1.84211 5.65C1.42789 5.65 1.09211 5.98579 1.09211 6.4C1.09211 6.81421 1.42789 7.15 1.84211 7.15V5.65ZM16.1579 7.15C16.5721 7.15 16.9079 6.81421 16.9079 6.4C16.9079 5.98579 16.5721 5.65 16.1579 5.65V7.15ZM14.8026 1C14.8026 0.585786 14.4668 0.25 14.0526 0.25C13.6384 0.25 13.3026 0.585786 13.3026 1H14.8026ZM13.3026 2.8C13.3026 3.21421 13.6384 3.55 14.0526 3.55C14.4668 3.55 14.8026 3.21421 14.8026 2.8H13.3026ZM4.69737 1C4.69737 0.585786 4.36158 0.25 3.94737 0.25C3.53316 0.25 3.19737 0.585786 3.19737 1H4.69737ZM3.19737 2.8C3.19737 3.21421 3.53316 3.55 3.94737 3.55C4.36158 3.55 4.69737 3.21421 4.69737 2.8H3.19737ZM8.99622 10.15C8.58201 10.15 8.24622 10.4858 8.24622 10.9C8.24622 11.3142 8.58201 11.65 8.99622 11.65V10.15ZM9.00378 11.65C9.41799 11.65 9.75378 11.3142 9.75378 10.9C9.75378 10.4858 9.41799 10.15 9.00378 10.15V11.65ZM8.99622 13.75C8.58201 13.75 8.24622 14.0858 8.24622 14.5C8.24622 14.9142 8.58201 15.25 8.99622 15.25V13.75ZM9.00378 15.25C9.41799 15.25 9.75378 14.9142 9.75378 14.5C9.75378 14.0858 9.41799 13.75 9.00378 13.75V15.25ZM12.3609 10.15C11.9467 10.15 11.6109 10.4858 11.6109 10.9C11.6109 11.3142 11.9467 11.65 12.3609 11.65V10.15ZM12.3684 11.65C12.7826 11.65 13.1184 11.3142 13.1184 10.9C13.1184 10.4858 12.7826 10.15 12.3684 10.15V11.65ZM5.63158 10.15C5.21737 10.15 4.88158 10.4858 4.88158 10.9C4.88158 11.3142 5.21737 11.65 5.63158 11.65V10.15ZM5.63913 11.65C6.05335 11.65 6.38913 11.3142 6.38913 10.9C6.38913 10.4858 6.05335 10.15 5.63913 10.15V11.65ZM5.63158 13.75C5.21737 13.75 4.88158 14.0858 4.88158 14.5C4.88158 14.9142 5.21737 15.25 5.63158 15.25V13.75ZM5.63913 15.25C6.05335 15.25 6.38913 14.9142 6.38913 14.5C6.38913 14.0858 6.05335 13.75 5.63913 13.75V15.25ZM8.2 2.65H9.8V1.15H8.2V2.65ZM16.25 10.2189V10.6811H17.75V10.2189H16.25ZM9.8 18.25H8.2V19.75H9.8V18.25ZM1.75 10.6811V10.2189H0.25V10.6811H1.75ZM8.2 18.25C6.47856 18.25 5.27445 18.2479 4.36495 18.1066C3.48942 17.9706 2.99291 17.72 2.62151 17.2909L1.48732 18.2725C2.17033 19.0617 3.04956 19.4203 4.1347 19.5888C5.18585 19.7521 6.52733 19.75 8.2 19.75V18.25ZM0.25 10.6811C0.25 12.6235 0.248801 14.1456 0.386829 15.3318C0.526228 16.5298 0.817821 17.499 1.48732 18.2725L2.62151 17.2909C2.23659 16.8462 2.00098 16.2258 1.87678 15.1585C1.7512 14.0793 1.75 12.6603 1.75 10.6811H0.25ZM16.25 10.6811C16.25 12.6603 16.2488 14.0793 16.1232 15.1585C15.999 16.2258 15.7634 16.8462 15.3785 17.2909L16.5127 18.2725C17.1822 17.499 17.4738 16.5298 17.6132 15.3318C17.7512 14.1456 17.75 12.6235 17.75 10.6811H16.25ZM9.8 19.75C11.4727 19.75 12.8141 19.7521 13.8653 19.5888C14.9504 19.4203 15.8297 19.0617 16.5127 18.2725L15.3785 17.2909C15.0071 17.72 14.5106 17.9706 13.6351 18.1066C12.7255 18.2479 11.5214 18.25 9.8 18.25V19.75ZM9.8 2.65C11.5214 2.65 12.7255 2.65211 13.6351 2.7934C14.5106 2.9294 15.0071 3.17997 15.3785 3.6091L16.5127 2.62746C15.8297 1.8383 14.9504 1.47974 13.8653 1.31117C12.8141 1.14789 11.4727 1.15 9.8 1.15V2.65ZM17.75 10.2189C17.75 8.27654 17.7512 6.75435 17.6132 5.56817C17.4738 4.37021 17.1822 3.401 16.5127 2.62746L15.3785 3.6091C15.7634 4.05383 15.999 4.67416 16.1232 5.74155C16.2488 6.82073 16.25 8.23972 16.25 10.2189H17.75ZM8.2 1.15C6.52733 1.15 5.18585 1.14789 4.1347 1.31117C3.04956 1.47974 2.17033 1.8383 1.48732 2.62746L2.62151 3.6091C2.99291 3.17997 3.48942 2.9294 4.36495 2.7934C5.27445 2.65211 6.47856 2.65 8.2 2.65V1.15ZM1.75 10.2189C1.75 8.23972 1.7512 6.82073 1.87678 5.74155C2.00098 4.67416 2.23659 4.05383 2.62151 3.6091L1.48732 2.62746C0.817821 3.401 0.526228 4.37021 0.386829 5.56817C0.248801 6.75435 0.25 8.27654 0.25 10.2189H1.75ZM1.84211 7.15H16.1579V5.65H1.84211V7.15ZM13.3026 1V2.8H14.8026V1H13.3026ZM3.19737 1V2.8H4.69737V1H3.19737ZM8.99622 11.65H9.00378V10.15H8.99622V11.65ZM8.99622 15.25H9.00378V13.75H8.99622V15.25ZM12.3609 11.65H12.3684V10.15H12.3609V11.65ZM5.63158 11.65H5.63913V10.15H5.63158V11.65ZM5.63158 15.25H5.63913V13.75H5.63158V15.25Z" fill="#185286"/>
</svg>
