<svg width="17" height="22" viewBox="0 0 17 22" fill="none" xmlns="http://www.w3.org/2000/svg">
<path d="M11.5 8.5C11.5 10.1569 10.1569 11.5 8.5 11.5C6.84315 11.5 5.5 10.1569 5.5 8.5C5.5 6.84315 6.84315 5.5 8.5 5.5C10.1569 5.5 11.5 6.84315 11.5 8.5Z" stroke="#111111" stroke-opacity="0.7" stroke-width="2"/>
<path d="M8.5 1C12.5588 1 16 4.42803 16 8.5869C16 12.812 12.5028 15.777 9.2725 17.7932C9.03709 17.9287 8.77087 18 8.5 18C8.22913 18 7.96291 17.9287 7.7275 17.7932C4.50325 15.7573 1 12.8266 1 8.5869C1 4.42803 4.4412 1 8.5 1Z" stroke="#111111" stroke-opacity="0.7" stroke-width="2"/>
<path d="M14.5 19C14.5 20.1046 11.8137 21 8.5 21C5.18629 21 2.5 20.1046 2.5 19" stroke="#111111" stroke-opacity="0.7" stroke-width="2" stroke-linecap="round"/>
</svg>
