<svg width="21" height="19" viewBox="0 0 21 19" fill="none" xmlns="http://www.w3.org/2000/svg">
<path d="M7.46433 18.5H6.29969C6.18266 18.5 6.06751 18.4709 5.96478 18.4155C5.86204 18.3601 5.77498 18.2801 5.71157 18.1828C5.64816 18.0855 5.61042 17.9741 5.6018 17.8587C5.59319 17.7433 5.61396 17.6275 5.66223 17.5221L8.48242 11.3671L4.24777 11.274L2.70336 13.1247C2.40891 13.4907 2.17397 13.6538 1.57458 13.6538H0.790567C0.666434 13.6578 0.543166 13.6321 0.43121 13.5789C0.319255 13.5257 0.221911 13.4467 0.147428 13.3484C0.0433013 13.2095 -0.0590759 12.9741 0.0406763 12.6383L0.90782 9.5662C0.914382 9.54327 0.922258 9.52034 0.931008 9.49784C0.931444 9.4957 0.931444 9.49349 0.931008 9.49135C0.921973 9.46886 0.914231 9.4459 0.90782 9.42255L0.0398012 6.33096C-0.0542633 6.00168 0.0485514 5.77149 0.151804 5.63606C0.221138 5.54507 0.311092 5.47144 0.414434 5.42109C0.517775 5.37074 0.63162 5.34507 0.746816 5.34615H1.57458C2.02216 5.34615 2.4566 5.54476 2.71211 5.86538L4.22458 7.68486L8.48242 7.62255L5.66311 1.47832C5.61477 1.37294 5.59391 1.25725 5.60244 1.14184C5.61097 1.02643 5.64862 0.914974 5.71193 0.817663C5.77525 0.720352 5.86223 0.640291 5.9649 0.584798C6.06758 0.529305 6.18268 0.50015 6.29969 0.5H7.47702C7.64127 0.503264 7.80267 0.54308 7.94923 0.616489C8.09579 0.689899 8.22375 0.795017 8.3236 0.924038L13.7947 7.50096L16.3221 7.43519C16.5072 7.42524 17.02 7.42178 17.1385 7.42178C19.5562 7.42308 21 8.19933 21 9.5C21 9.90933 20.8346 10.6683 19.7282 11.1512C19.075 11.4367 18.2034 11.5813 17.1377 11.5813C17.0204 11.5813 16.509 11.5778 16.3213 11.5678L13.7942 11.5012L8.3096 18.0781C8.20967 18.2066 8.08182 18.3112 7.93552 18.3842C7.78921 18.4572 7.62818 18.4968 7.46433 18.5Z" fill="#111111" fill-opacity="0.3"/>
</svg>
