<svg width="254" height="19" viewBox="0 0 254 19" fill="none" xmlns="http://www.w3.org/2000/svg">
<path d="M0.333333 9.5C0.333333 10.9728 1.52724 12.1667 3 12.1667C4.47276 12.1667 5.66667 10.9728 5.66667 9.5C5.66667 8.02724 4.47276 6.83333 3 6.83333C1.52724 6.83333 0.333333 8.02724 0.333333 9.5ZM3 10H6.57143V9H3V10ZM13.7143 10H20.8571V9H13.7143V10ZM28 10H35.1429V9H28V10ZM42.2857 10H49.4286V9H42.2857V10ZM56.5714 10H63.7143V9H56.5714V10ZM70.8571 10H78V9H70.8571V10ZM85.1429 10H92.2857V9H85.1429V10ZM99.4286 10H103V9H99.4286V10Z" fill="#111111" fill-opacity="0.1"/>
<path opacity="0.1" d="M125.464 19H124.3C124.183 19 124.068 18.9693 123.965 18.9108C123.862 18.8523 123.775 18.7679 123.712 18.6652C123.648 18.5625 123.61 18.4449 123.602 18.3231C123.593 18.2012 123.614 18.0791 123.662 17.9678L126.482 11.4708L122.248 11.3726L120.703 13.326C120.409 13.7124 120.174 13.8846 119.575 13.8846H118.791C118.666 13.8888 118.543 13.8617 118.431 13.8055C118.319 13.7494 118.222 13.6659 118.147 13.5622C118.043 13.4156 117.941 13.1671 118.041 12.8127L118.908 9.56988C118.914 9.54567 118.922 9.52147 118.931 9.49772C118.931 9.49545 118.931 9.49313 118.931 9.49087C118.922 9.46713 118.914 9.44289 118.908 9.41825L118.04 6.1549C117.946 5.80733 118.049 5.56435 118.152 5.42139C118.221 5.32535 118.311 5.24763 118.414 5.19449C118.518 5.14134 118.632 5.11424 118.747 5.11538H119.575C120.022 5.11538 120.457 5.32502 120.712 5.66346L122.225 7.58401L126.482 7.51825L123.663 1.03267C123.615 0.921432 123.594 0.79932 123.602 0.677498C123.611 0.555675 123.649 0.438028 123.712 0.335311C123.775 0.232594 123.862 0.148085 123.965 0.0895089C124.068 0.0309328 124.183 0.000158663 124.3 0H125.477C125.641 0.00344576 125.803 0.045473 125.949 0.122961C126.096 0.200449 126.224 0.311407 126.324 0.447596L131.795 7.3899L134.322 7.32048C134.507 7.30998 135.02 7.30632 135.139 7.30632C137.556 7.30769 139 8.12707 139 9.5C139 9.93207 138.835 10.7332 137.728 11.2429C137.075 11.5443 136.203 11.6969 135.138 11.6969C135.02 11.6969 134.509 11.6932 134.321 11.6827L131.794 11.6124L126.31 18.5547C126.21 18.6903 126.082 18.8007 125.936 18.8778C125.789 18.9548 125.628 18.9966 125.464 19Z" fill="#111111"/>
<path d="M254 9.49999L249 6.61324L249 12.3867L254 9.49999ZM154 10L157.571 10L157.571 9L154 9L154 10ZM164.714 10L171.857 10L171.857 9L164.714 9L164.714 10ZM179 10L186.143 10L186.143 9L179 9L179 10ZM193.286 10L200.429 10L200.429 9L193.286 9L193.286 10ZM207.571 10L214.714 9.99999L214.714 8.99999L207.571 9L207.571 10ZM221.857 9.99999L229 9.99999L229 8.99999L221.857 8.99999L221.857 9.99999ZM236.143 9.99999L243.286 9.99999L243.286 8.99999L236.143 8.99999L236.143 9.99999Z" fill="#111111" fill-opacity="0.1"/>
</svg>
