<svg width="68" height="68" viewBox="0 0 68 68" fill="none" xmlns="http://www.w3.org/2000/svg">
<g filter="url(#filter0_d_22_52)">
<rect x="16" y="12" width="36" height="36" rx="5" fill="#28B674"/>
<g filter="url(#filter1_d_22_52)">
<path d="M25.2039 26.5727L24.4806 26.771L25.2039 26.5727ZM25.4622 27.515L26.1855 27.3167L25.4622 27.515ZM37.682 27.8391L37.492 27.1136L37.682 27.8391ZM42.3246 26.6229L42.5146 27.3484L42.516 27.3481L42.3246 26.6229ZM29.8092 29.9014L29.6191 29.1759L29.8092 29.9014ZM32.5486 29.1838L32.7387 29.9093L32.5486 29.1838ZM25.058 25.3104L25.74 25.6225L25.74 25.6225L25.058 25.3104ZM26.3832 24.6298L26.1931 23.9043L26.3832 24.6298ZM27.2549 24.4981L27.4017 23.7626L27.4017 23.7626L27.2549 24.4981ZM37.1307 28.276L37.7961 28.622V28.6219L37.1307 28.276ZM36.0261 30.4005L36.6673 30.7896C36.6758 30.7755 36.6839 30.7611 36.6915 30.7465L36.0261 30.4005ZM34.9399 31.2013L35.13 31.9268L34.9399 31.2013ZM32.9049 31.7344L32.7148 31.0089L32.9049 31.7344ZM32.3566 31.2403L33.0891 31.4012L32.3566 31.2403ZM32.7642 29.3842L32.0316 29.2233L32.0316 29.2233L32.7642 29.3842ZM35.6396 23.5436L35.9536 24.2247L35.9536 24.2247L35.6396 23.5436ZM30.5562 25.9283L30.2376 25.2493L30.5562 25.9283ZM28.4489 25.5377L28.9995 25.0284L28.9995 25.0284L28.4489 25.5377ZM42.8397 25.2982L43.4422 24.8515L43.4387 24.8468L42.8397 25.2982ZM25 36.25C24.5858 36.25 24.25 36.5858 24.25 37C24.25 37.4142 24.5858 37.75 25 37.75V36.25ZM39.4 37.75C39.8142 37.75 40.15 37.4142 40.15 37C40.15 36.5858 39.8142 36.25 39.4 36.25V37.75ZM24.4806 26.771L24.7389 27.7132L26.1855 27.3167L25.9273 26.3745L24.4806 26.771ZM37.8721 28.5646L42.5146 27.3484L42.1345 25.8974L37.492 27.1136L37.8721 28.5646ZM29.9992 30.627L32.7387 29.9093L32.3586 28.4583L29.6191 29.1759L29.9992 30.627ZM25.9273 26.3745C25.832 26.0268 25.7795 25.8306 25.7582 25.6868C25.7395 25.5607 25.7619 25.5746 25.74 25.6225L24.376 24.9983C24.229 25.3196 24.2341 25.635 24.2744 25.907C24.3122 26.1612 24.3952 26.4594 24.4806 26.771L25.9273 26.3745ZM26.5732 25.3553C26.806 25.2943 26.9361 25.2609 27.0342 25.2439C27.1195 25.2291 27.1266 25.2373 27.1081 25.2336L27.4017 23.7626C27.1736 23.7171 26.9656 23.7334 26.7779 23.766C26.6028 23.7963 26.4018 23.8496 26.1931 23.9043L26.5732 25.3553ZM24.7389 27.7132C24.9455 28.4672 25.1196 29.1089 25.331 29.5997C25.5526 30.114 25.8552 30.5621 26.3753 30.8476L27.0971 29.5327C26.9806 29.4688 26.8587 29.3546 26.7086 29.0062C26.5484 28.6344 26.4038 28.1132 26.1855 27.3167L24.7389 27.7132ZM29.6191 29.1759C28.7874 29.3938 28.233 29.5375 27.8063 29.5926C27.3983 29.6453 27.219 29.5997 27.0971 29.5327L26.3753 30.8476C26.89 31.1302 27.435 31.153 27.9983 31.0803C28.5429 31.01 29.2067 30.8346 29.9992 30.627L29.6191 29.1759ZM36.4653 27.93L35.3607 30.0545L36.6915 30.7465L37.7961 28.622L36.4653 27.93ZM34.7499 30.4758L32.7148 31.0089L33.0949 32.4599L35.13 31.9268L34.7499 30.4758ZM33.0891 31.4012L33.4967 29.545L32.0316 29.2233L31.624 31.0795L33.0891 31.4012ZM32.7148 31.0089C32.8084 30.9844 32.9124 31.0108 32.9871 31.0782C33.0639 31.1474 33.1179 31.2704 33.0891 31.4012L31.624 31.0795C31.4226 31.9968 32.2924 32.6701 33.0949 32.4599L32.7148 31.0089ZM35.385 30.0114C35.2504 30.233 35.0242 30.4039 34.7499 30.4758L35.13 31.9268C35.7695 31.7593 36.3247 31.3541 36.6673 30.7896L35.385 30.0114ZM35.3256 22.8625C33.6231 23.6473 31.9256 24.4574 30.2376 25.2493L30.8747 26.6073C32.5754 25.8094 34.2565 25.0071 35.9536 24.2247L35.3256 22.8625ZM26.1931 23.9043C26.042 23.9439 25.6582 24.0211 25.36 24.1365C25.0361 24.2618 24.6039 24.5003 24.376 24.9983L25.74 25.6225C25.7307 25.6428 25.7318 25.601 25.9012 25.5355C25.9814 25.5045 26.0771 25.4768 26.195 25.4473C26.2824 25.4255 26.4651 25.3836 26.5732 25.3553L26.1931 23.9043ZM28.9995 25.0284C28.935 24.9587 28.8668 24.8756 28.7717 24.7611C28.6833 24.6547 28.5758 24.5264 28.4575 24.4033C28.2354 24.1721 27.8844 23.859 27.4017 23.7626L27.1081 25.2336C27.1246 25.2369 27.2074 25.2671 27.3758 25.4425C27.4528 25.5227 27.5298 25.6136 27.6179 25.7196C27.6993 25.8175 27.7995 25.9401 27.8982 26.0469L28.9995 25.0284ZM30.2376 25.2493C29.7361 25.4846 29.5917 25.4833 29.5396 25.474C29.496 25.4661 29.3665 25.4253 28.9995 25.0284L27.8982 26.0469C28.2781 26.4576 28.7012 26.8472 29.274 26.9502C29.8383 27.0518 30.3741 26.8421 30.8747 26.6073L30.2376 25.2493ZM43.4387 24.8468C41.576 22.3756 38.1382 21.5659 35.3256 22.8625L35.9536 24.2247C38.1462 23.2139 40.8166 23.8602 42.2408 25.7497L43.4387 24.8468ZM42.516 27.3481C43.5225 27.0824 44.1768 25.8424 43.4422 24.8515L42.2373 25.7449C42.2488 25.7605 42.2495 25.7684 42.2498 25.771C42.2503 25.776 42.2503 25.7877 42.2431 25.8054C42.2273 25.8441 42.1889 25.883 42.1332 25.8977L42.516 27.3481ZM32.7387 29.9093C32.353 30.0104 31.9321 29.6767 32.0316 29.2233L33.4967 29.545C33.651 28.8425 32.996 28.2913 32.3586 28.4583L32.7387 29.9093ZM37.492 27.1136C37.052 27.2288 36.6769 27.523 36.4653 27.93L37.7961 28.6219C37.8086 28.5979 37.8343 28.5745 37.8721 28.5646L37.492 27.1136ZM25 37.75H39.4V36.25H25V37.75Z" fill="white"/>
</g>
</g>
<defs>
<filter id="filter0_d_22_52" x="0" y="0" width="68" height="68" filterUnits="userSpaceOnUse" color-interpolation-filters="sRGB">
<feFlood flood-opacity="0" result="BackgroundImageFix"/>
<feColorMatrix in="SourceAlpha" type="matrix" values="0 0 0 0 0 0 0 0 0 0 0 0 0 0 0 0 0 0 127 0" result="hardAlpha"/>
<feOffset dy="4"/>
<feGaussianBlur stdDeviation="8"/>
<feComposite in2="hardAlpha" operator="out"/>
<feColorMatrix type="matrix" values="0 0 0 0 0.0784314 0 0 0 0 0.643137 0 0 0 0 0.301961 0 0 0 0.15 0"/>
<feBlend mode="normal" in2="BackgroundImageFix" result="effect1_dropShadow_22_52"/>
<feBlend mode="normal" in="SourceGraphic" in2="effect1_dropShadow_22_52" result="shape"/>
</filter>
<filter id="filter1_d_22_52" x="8.25" y="10.2502" width="51.5064" height="47.4998" filterUnits="userSpaceOnUse" color-interpolation-filters="sRGB">
<feFlood flood-opacity="0" result="BackgroundImageFix"/>
<feColorMatrix in="SourceAlpha" type="matrix" values="0 0 0 0 0 0 0 0 0 0 0 0 0 0 0 0 0 0 127 0" result="hardAlpha"/>
<feOffset dy="4"/>
<feGaussianBlur stdDeviation="8"/>
<feComposite in2="hardAlpha" operator="out"/>
<feColorMatrix type="matrix" values="0 0 0 0 0.0784314 0 0 0 0 0.643137 0 0 0 0 0.301961 0 0 0 0.3 0"/>
<feBlend mode="normal" in2="BackgroundImageFix" result="effect1_dropShadow_22_52"/>
<feBlend mode="normal" in="SourceGraphic" in2="effect1_dropShadow_22_52" result="shape"/>
</filter>
</defs>
</svg>
