<svg width="80" height="80" viewBox="0 0 80 80" fill="none" xmlns="http://www.w3.org/2000/svg">
<circle cx="40" cy="40" r="39" stroke="url(#paint0_linear_332_2813)" stroke-width="2"/>
<circle cx="40" cy="40" r="30" fill="white"/>
<path d="M31.6667 48.75C30.9763 48.75 30.4167 49.3096 30.4167 50C30.4167 50.6903 30.9763 51.25 31.6667 51.25V48.75ZM33.3333 51.25C34.0237 51.25 34.5833 50.6903 34.5833 50C34.5833 49.3096 34.0237 48.75 33.3333 48.75V51.25ZM46.6667 48.75C45.9763 48.75 45.4167 49.3096 45.4167 50C45.4167 50.6903 45.9763 51.25 46.6667 51.25V48.75ZM48.3333 51.25C49.0237 51.25 49.5833 50.6903 49.5833 50C49.5833 49.3096 49.0237 48.75 48.3333 48.75V51.25ZM49.0237 24.3096L49.9076 23.4257V23.4257L49.0237 24.3096ZM49.0237 37.357L49.9076 38.2409L49.0237 37.357ZM30.9763 37.357L31.8602 36.4731H31.8602L30.9763 37.357ZM38.733 38.5388C38.8465 37.8578 38.3865 37.2138 37.7055 37.1003C37.0245 36.9868 36.3805 37.4469 36.267 38.1278L38.733 38.5388ZM35.4337 43.1278C35.3202 43.8088 35.7802 44.4528 36.4612 44.5663C37.1421 44.6798 37.7862 44.2198 37.8997 43.5388L35.4337 43.1278ZM43.733 38.1278C43.6195 37.4469 42.9755 36.9868 42.2945 37.1003C41.6135 37.2138 41.1535 37.8578 41.267 38.5388L43.733 38.1278ZM42.1003 43.5388C42.2138 44.2198 42.8579 44.6798 43.5388 44.5663C44.2198 44.4528 44.6798 43.8088 44.5663 43.1278L42.1003 43.5388ZM41.25 43.3333C41.25 42.643 40.6904 42.0833 40 42.0833C39.3096 42.0833 38.75 42.643 38.75 43.3333H41.25ZM38.75 56.6666C38.75 57.357 39.3096 57.9166 40 57.9166C40.6904 57.9166 41.25 57.357 41.25 56.6666H38.75ZM30 44.5833H50V42.0833H30V44.5833ZM53.75 48.3333V51.6666H56.25V48.3333H53.75ZM50 55.4166H30V57.9166H50V55.4166ZM26.25 51.6666V48.3333H23.75V51.6666H26.25ZM30 42.0833C28.9388 42.0833 28.0016 42.137 27.2054 42.312C26.395 42.49 25.6529 42.8102 25.0649 43.3982C24.4769 43.9862 24.1567 44.7283 23.9786 45.5387C23.8037 46.335 23.75 47.2721 23.75 48.3333H26.25C26.25 47.3262 26.3042 46.6042 26.4204 46.0751C26.5335 45.5602 26.6877 45.3109 26.8326 45.1659C26.9775 45.021 27.2269 44.8668 27.7418 44.7537C28.2709 44.6375 28.9929 44.5833 30 44.5833V42.0833ZM30 55.4166C28.9929 55.4166 28.2709 55.3624 27.7418 55.2462C27.2269 55.1331 26.9775 54.9789 26.8326 54.834C26.6877 54.6891 26.5335 54.4398 26.4204 53.9248C26.3042 53.3958 26.25 52.6738 26.25 51.6666H23.75C23.75 52.7279 23.8037 53.665 23.9786 54.4613C24.1567 55.2717 24.4769 56.0138 25.0649 56.6018C25.6529 57.1898 26.395 57.51 27.2054 57.688C28.0016 57.8629 28.9388 57.9166 30 57.9166V55.4166ZM53.75 51.6666C53.75 52.6738 53.6958 53.3958 53.5796 53.9248C53.4665 54.4398 53.3123 54.6891 53.1674 54.834C53.0225 54.9789 52.7731 55.1331 52.2582 55.2462C51.7291 55.3624 51.0071 55.4166 50 55.4166V57.9166C51.0612 57.9166 51.9984 57.8629 52.7946 57.688C53.605 57.51 54.3471 57.1898 54.9351 56.6018C55.5231 56.0138 55.8433 55.2717 56.0214 54.4613C56.1963 53.665 56.25 52.7279 56.25 51.6666H53.75ZM50 44.5833C51.0071 44.5833 51.7291 44.6375 52.2582 44.7537C52.7731 44.8668 53.0225 45.021 53.1674 45.1659C53.3123 45.3109 53.4665 45.5602 53.5796 46.0751C53.6958 46.6042 53.75 47.3262 53.75 48.3333H56.25C56.25 47.2721 56.1963 46.335 56.0214 45.5387C55.8433 44.7283 55.5231 43.9862 54.9351 43.3982C54.3471 42.8102 53.605 42.49 52.7946 42.312C51.9984 42.137 51.0612 42.0833 50 42.0833V44.5833ZM31.6667 51.25H33.3333V48.75H31.6667V51.25ZM46.6667 51.25H48.3333V48.75H46.6667V51.25ZM28.75 30V31.6666H31.25V30H28.75ZM36.6667 39.5833H43.3333V37.0833H36.6667V39.5833ZM51.25 31.6666V30H48.75V31.6666H51.25ZM43.3333 22.0833H36.6667V24.5833H43.3333V22.0833ZM51.25 30C51.25 28.464 51.2527 27.1862 51.1168 26.1758C50.9761 25.1295 50.6667 24.1849 49.9076 23.4257L48.1398 25.1935C48.357 25.4107 48.5357 25.7399 48.6391 26.509C48.7473 27.314 48.75 28.3933 48.75 30H51.25ZM43.3333 24.5833C44.94 24.5833 46.0193 24.586 46.8243 24.6942C47.5934 24.7976 47.9226 24.9763 48.1398 25.1935L49.9076 23.4257C49.1485 22.6666 48.2038 22.3572 47.1575 22.2165C46.1471 22.0807 44.8693 22.0833 43.3333 22.0833V24.5833ZM43.3333 39.5833C44.8693 39.5833 46.1471 39.586 47.1575 39.4501C48.2038 39.3095 49.1485 39 49.9076 38.2409L48.1398 36.4731C47.9226 36.6903 47.5934 36.869 46.8243 36.9724C46.0193 37.0807 44.94 37.0833 43.3333 37.0833V39.5833ZM48.75 31.6666C48.75 33.2733 48.7473 34.3526 48.6391 35.1577C48.5357 35.9268 48.357 36.2559 48.1398 36.4731L49.9076 38.2409C50.6667 37.4818 50.9761 36.5371 51.1168 35.4908C51.2527 34.4804 51.25 33.2027 51.25 31.6666H48.75ZM28.75 31.6666C28.75 33.2027 28.7473 34.4804 28.8832 35.4908C29.0239 36.5371 29.3333 37.4818 30.0924 38.2409L31.8602 36.4731C31.643 36.2559 31.4643 35.9268 31.3609 35.1577C31.2527 34.3526 31.25 33.2733 31.25 31.6666H28.75ZM36.6667 37.0833C35.06 37.0833 33.9807 37.0807 33.1757 36.9724C32.4066 36.869 32.0774 36.6903 31.8602 36.4731L30.0924 38.2409C30.8515 39 31.7962 39.3095 32.8425 39.4501C33.8529 39.586 35.1307 39.5833 36.6667 39.5833V37.0833ZM31.25 30C31.25 28.3933 31.2527 27.314 31.3609 26.509C31.4643 25.7399 31.643 25.4107 31.8602 25.1935L30.0924 23.4257C29.3333 24.1849 29.0239 25.1295 28.8832 26.1758C28.7473 27.1862 28.75 28.464 28.75 30H31.25ZM36.6667 22.0833C35.1307 22.0833 33.8529 22.0807 32.8425 22.2165C31.7962 22.3572 30.8515 22.6666 30.0924 23.4257L31.8602 25.1935C32.0774 24.9763 32.4066 24.7976 33.1757 24.6942C33.9807 24.586 35.06 24.5833 36.6667 24.5833V22.0833ZM36.267 38.1278L35.4337 43.1278L37.8997 43.5388L38.733 38.5388L36.267 38.1278ZM41.267 38.5388L42.1003 43.5388L44.5663 43.1278L43.733 38.1278L41.267 38.5388ZM38.75 43.3333V56.6666H41.25V43.3333H38.75Z" fill="#185286"/>
<defs>
<linearGradient id="paint0_linear_332_2813" x1="55" y1="54.5" x2="2" y2="15" gradientUnits="userSpaceOnUse">
<stop stop-color="white"/>
<stop offset="1" stop-color="#185286"/>
</linearGradient>
</defs>
</svg>
