<svg width="80" height="80" viewBox="0 0 80 80" fill="none" xmlns="http://www.w3.org/2000/svg">
<circle cx="40" cy="40" r="39" stroke="url(#paint0_linear_332_2807)" stroke-width="2"/>
<circle cx="40" cy="40" r="30" fill="white"/>
<path d="M55.75 26H54V24.25C54 23.2828 53.2164 22.5 52.25 22.5C51.2836 22.5 50.5 23.2828 50.5 24.25V26.9056C49.5308 27.6291 48.5958 28.3863 47.6876 29.1707C45.0536 27.1895 41.792 26 38.25 26C29.5658 26 22.5 33.0649 22.5 41.75C22.5 50.4351 29.5658 57.5 38.25 57.5C46.9342 57.5 54 50.4351 54 41.75C54 38.2078 52.8105 34.9462 50.8293 32.3124C51.6137 31.4042 52.3709 30.4692 53.0944 29.5H55.75C56.7164 29.5 57.5 28.7172 57.5 27.75C57.5 26.7828 56.7164 26 55.75 26ZM50.5 41.75C50.5 48.504 45.0048 54 38.25 54C31.4952 54 26 48.504 26 41.75C26 34.996 31.4952 29.5 38.25 29.5C40.7625 29.5 43.0991 30.2625 45.0451 31.5652C44.536 32.0494 44.0297 32.5364 43.5292 33.0292C43.1686 33.3913 42.8151 33.7604 42.4593 34.1272C41.2047 33.4312 39.7835 33 38.25 33C33.4256 33 29.5 36.9256 29.5 41.75C29.5 46.5744 33.4256 50.5 38.25 50.5C43.0744 50.5 47 46.5744 47 41.75C47 40.2165 46.5688 38.7953 45.8727 37.5407C46.2396 37.1849 46.6087 36.8315 46.9706 36.4708C47.4634 35.9703 47.9504 35.464 48.4346 34.9547C49.7375 36.9009 50.5 39.2377 50.5 41.75ZM43.5 41.75C43.5 44.645 41.145 47 38.25 47C35.355 47 33 44.645 33 41.75C33 38.855 35.355 36.5 38.25 36.5C38.8552 36.5 39.4276 36.6236 39.969 36.8127C38.9321 37.9947 37.9366 39.2179 37.0126 40.5126C36.5863 41.1119 36.5612 41.9416 37.0126 42.5739C37.5819 43.3714 38.6898 43.5565 39.4874 42.9874C40.7821 42.0634 42.0053 41.0679 43.1873 40.031C43.3764 40.5724 43.5 41.1448 43.5 41.75Z" fill="#185286"/>
<defs>
<linearGradient id="paint0_linear_332_2807" x1="55" y1="54.5" x2="2" y2="15" gradientUnits="userSpaceOnUse">
<stop stop-color="white"/>
<stop offset="1" stop-color="#185286"/>
</linearGradient>
</defs>
</svg>
