<svg width="9" height="10" viewBox="0 0 9 10" fill="none" xmlns="http://www.w3.org/2000/svg">
<path fill-rule="evenodd" clip-rule="evenodd" d="M0 5C0 2.87868 0 1.81802 0.65901 1.15901C1.31802 0.5 2.37868 0.5 4.5 0.5C6.62132 0.5 7.68198 0.5 8.34099 1.15901C9 1.81802 9 2.87868 9 5C9 7.12132 9 8.18198 8.34099 8.84099C7.68198 9.5 6.62132 9.5 4.5 9.5C2.37868 9.5 1.31802 9.5 0.65901 8.84099C0 8.18198 0 7.12132 0 5ZM3.9375 2.75C3.9375 2.43934 4.18934 2.1875 4.5 2.1875C4.81066 2.1875 5.0625 2.43934 5.0625 2.75V5.5625C5.0625 5.87316 4.81066 6.125 4.5 6.125C4.18934 6.125 3.9375 5.87316 3.9375 5.5625V2.75ZM4.5 6.6875C4.18934 6.6875 3.9375 6.93934 3.9375 7.25C3.9375 7.56066 4.18934 7.8125 4.5 7.8125C4.81066 7.8125 5.0625 7.56066 5.0625 7.25C5.0625 6.93934 4.81066 6.6875 4.5 6.6875Z" fill="#111111"/>
</svg>
