<svg width="20" height="20" viewBox="0 0 20 20" fill="none" xmlns="http://www.w3.org/2000/svg">
<path d="M1.7686 13.6C1.27451 12.4897 1 11.2609 1 9.9681C1 5.01516 5.02944 1 10 1C14.9706 1 19 5.01516 19 9.9681C19 11.2609 18.7255 12.4897 18.2314 13.6M6.2043 14.6001C8.52663 13.2666 11.4734 13.2666 13.7957 14.6001C14.786 15.1687 17.3826 16.3298 15.8011 17.7827C15.0286 18.4924 14.1682 19 13.0864 19H6.91361C5.83184 19 4.97142 18.4924 4.19886 17.7827C2.61736 16.3298 5.21396 15.1687 6.2043 14.6001ZM13.15 8.2C13.15 9.9397 11.7397 11.35 10 11.35C8.2603 11.35 6.85 9.9397 6.85 8.2C6.85 6.4603 8.2603 5.05 10 5.05C11.7397 5.05 13.15 6.4603 13.15 8.2Z" stroke="#185286" stroke-width="1.5" stroke-linecap="round"/>
</svg>
