<svg width="29" height="29" viewBox="0 0 29 29" fill="none" xmlns="http://www.w3.org/2000/svg">
<path d="M23.0339 21.2661C22.5457 20.778 21.7543 20.778 21.2661 21.2661C20.778 21.7543 20.778 22.5457 21.2661 23.0339L23.0339 21.2661ZM21.2661 23.0339L27.1161 28.8839L28.8839 27.1161L23.0339 21.2661L21.2661 23.0339ZM26.65 13.7C26.65 6.54791 20.8521 0.75 13.7 0.75V3.25C19.4714 3.25 24.15 7.92862 24.15 13.7H26.65ZM13.7 0.75C6.54791 0.75 0.75 6.54791 0.75 13.7H3.25C3.25 7.92862 7.92862 3.25 13.7 3.25V0.75ZM0.75 13.7C0.75 20.8521 6.54791 26.65 13.7 26.65V24.15C7.92862 24.15 3.25 19.4714 3.25 13.7H0.75ZM13.7 26.65C20.8521 26.65 26.65 20.8521 26.65 13.7H24.15C24.15 19.4714 19.4714 24.15 13.7 24.15V26.65Z" fill="white"/>
</svg>
