<svg width="22" height="22" viewBox="0 0 22 22" fill="none" xmlns="http://www.w3.org/2000/svg">
<path d="M1 21H12C16.9706 21 21 16.9706 21 12C21 7.02944 16.9706 3 12 3C7.36745 3 3.49744 6.50005 3 11" stroke="#111111" stroke-opacity="0.7" stroke-width="2" stroke-linecap="round"/>
<path d="M17.5 4.5L18.5 3.5M4.5 3.5L5.5 4.5" stroke="#111111" stroke-opacity="0.7" stroke-width="2" stroke-linecap="round" stroke-linejoin="round"/>
<path d="M15.5 8L12.5607 10.9393M12.5607 10.9393C12.2892 10.6679 11.9142 10.5 11.5 10.5C10.6716 10.5 10 11.1716 10 12C10 12.8284 10.6716 13.5 11.5 13.5C12.3284 13.5 13 12.8284 13 12C13 11.5858 12.8321 11.2108 12.5607 10.9393Z" stroke="#111111" stroke-opacity="0.7" stroke-width="2" stroke-linecap="round"/>
<path d="M11.5 2.5V1" stroke="#111111" stroke-opacity="0.7" stroke-width="2" stroke-linecap="round" stroke-linejoin="round"/>
<path d="M9.5 1H13.5" stroke="#111111" stroke-opacity="0.7" stroke-width="2" stroke-linecap="round" stroke-linejoin="round"/>
<path d="M1 14H4" stroke="#111111" stroke-opacity="0.7" stroke-width="2" stroke-linecap="round" stroke-linejoin="round"/>
<path d="M1 18H6" stroke="#111111" stroke-opacity="0.7" stroke-width="2" stroke-linecap="round" stroke-linejoin="round"/>
</svg>
