<svg width="68" height="68" viewBox="0 0 68 68" fill="none" xmlns="http://www.w3.org/2000/svg">
<g filter="url(#filter0_d_22_45)">
<rect x="16" y="12" width="36" height="36" rx="5" fill="#28B674"/>
<path d="M28.5999 36.25C28.1857 36.25 27.8499 36.5858 27.8499 37C27.8499 37.4142 28.1857 37.75 28.5999 37.75V36.25ZM43 37.75C43.4142 37.75 43.75 37.4142 43.75 37C43.75 36.5858 43.4142 36.25 43 36.25V37.75ZM25.7349 24.3594L26.4587 24.5562L25.7349 24.3594ZM25.4696 25.3349L24.7459 25.1381L25.4696 25.3349ZM36.1714 31.8101L35.98 32.5353H35.98L36.1714 31.8101ZM40.9409 33.0693L40.7494 33.7944L40.7508 33.7948L40.9409 33.0693ZM28.0833 29.6748L28.2747 28.9497L28.0833 29.6748ZM30.8977 30.4178L30.7062 31.143L30.8977 30.4178ZM26.2684 23.1537L26.7038 23.7643L26.7038 23.7643L26.2684 23.1537ZM27.805 23.2141L27.6135 23.9392L27.805 23.2141ZM28.6497 23.5372L29.1429 22.9722L29.1429 22.9722L28.6497 23.5372ZM35.4513 31.9228L35.8562 32.5542H35.8562L35.4513 31.9228ZM33.3523 33.2687L33.7154 33.925C33.7296 33.9171 33.7435 33.9088 33.7571 33.9001L33.3523 33.2687ZM31.9652 33.437L31.7738 34.1622L31.9652 33.437ZM29.8745 32.8851L30.0659 32.1599H30.0659L29.8745 32.8851ZM29.6463 32.1646L30.1989 32.6716L30.1989 32.6716L29.6463 32.1646ZM30.9841 30.7065L30.4315 30.1995L30.4315 30.1995L30.9841 30.7065ZM36.6112 26.9249L36.5499 27.6724L36.5499 27.6724L36.6112 26.9249ZM30.8355 26.4903L30.8917 25.7424H30.8917L30.8355 26.4903ZM29.1658 25.0736L29.8986 24.9139L29.8986 24.9139L29.1658 25.0736ZM42.0953 32.1422L42.8411 32.0635L42.8405 32.0576L42.0953 32.1422ZM28.5999 37.75L43 37.75V36.25L28.5999 36.25V37.75ZM25.0112 24.1626L24.7459 25.1381L26.1934 25.5318L26.4587 24.5562L25.0112 24.1626ZM35.98 32.5353L40.7494 33.7944L41.1323 32.3441L36.3628 31.085L35.98 32.5353ZM27.8918 30.4L30.7062 31.143L31.0891 29.6927L28.2747 28.9497L27.8918 30.4ZM26.4587 24.5562C26.5563 24.1971 26.6133 23.9923 26.6709 23.8502C26.7216 23.7248 26.7382 23.7398 26.7038 23.7643L25.8329 22.5431C25.5435 22.7494 25.3863 23.0259 25.2805 23.2873C25.1814 23.532 25.0992 23.8392 25.0112 24.1626L26.4587 24.5562ZM27.6135 23.9392C27.8525 24.0023 27.9865 24.0384 28.0833 24.073C28.1681 24.1033 28.1707 24.1147 28.1565 24.1022L29.1429 22.9722C28.9642 22.8162 28.7713 22.7259 28.5882 22.6605C28.4172 22.5994 28.211 22.5456 27.9964 22.4889L27.6135 23.9392ZM24.7459 25.1381C24.5334 25.9195 24.3518 26.5807 24.2824 27.1255C24.2098 27.6946 24.2429 28.247 24.5551 28.7654L25.84 27.9915C25.7695 27.8744 25.7203 27.7077 25.7703 27.3152C25.8235 26.8984 25.9693 26.3557 26.1934 25.5318L24.7459 25.1381ZM28.2747 28.9497C27.4206 28.7242 26.8508 28.5722 26.4413 28.4053C26.0492 28.2454 25.9134 28.1133 25.84 27.9915L24.5551 28.7654C24.8645 29.2791 25.3372 29.575 25.8751 29.7943C26.3956 30.0065 27.0773 30.1849 27.8918 30.4L28.2747 28.9497ZM35.0465 31.2915L32.9475 32.6374L33.7571 33.9001L35.8562 32.5542L35.0465 31.2915ZM32.1566 32.7119L30.0659 32.1599L29.6831 33.6102L31.7738 34.1622L32.1566 32.7119ZM30.1989 32.6716L31.5368 31.2136L30.4315 30.1995L29.0937 31.6575L30.1989 32.6716ZM30.0659 32.1599C30.1583 32.1843 30.237 32.2596 30.268 32.3574C30.2996 32.4571 30.2804 32.5828 30.1989 32.6716L29.0937 31.6575C28.4599 32.3481 28.8492 33.3901 29.6831 33.6102L30.0659 32.1599ZM32.9892 32.6125C32.7422 32.7491 32.4422 32.7873 32.1566 32.7119L31.7738 34.1622C32.427 34.3347 33.1249 34.2517 33.7154 33.925L32.9892 32.6125ZM36.6724 26.1774C34.7454 26.0195 32.8098 25.8867 30.8917 25.7424L30.7792 27.2382C32.7113 27.3835 34.6288 27.5149 36.5499 27.6724L36.6724 26.1774ZM27.9964 22.4889C27.8394 22.4475 27.4597 22.3232 27.1351 22.2759C26.7816 22.2244 26.2835 22.2217 25.8329 22.5431L26.7038 23.7643C26.7051 23.7634 26.7117 23.7577 26.7399 23.7535C26.7735 23.7485 26.8301 23.7473 26.9189 23.7602C27.0077 23.7732 27.1083 23.797 27.2288 23.8304C27.3189 23.8553 27.5023 23.9099 27.6135 23.9392L27.9964 22.4889ZM29.8986 24.9139C29.8778 24.8184 29.8608 24.709 29.8363 24.5583C29.8136 24.4181 29.7854 24.2491 29.7449 24.0793C29.6691 23.7607 29.5216 23.3027 29.1429 22.9722L28.1565 24.1022C28.1696 24.1137 28.2277 24.1831 28.2857 24.4267C28.3122 24.538 28.333 24.6589 28.3557 24.7985C28.3766 24.9276 28.4014 25.088 28.433 25.2332L29.8986 24.9139ZM30.8917 25.7424C30.3198 25.6994 30.1888 25.6246 30.1459 25.5887C30.111 25.5593 30.0169 25.4567 29.8986 24.9139L28.433 25.2332C28.5549 25.7925 28.7263 26.3555 29.1815 26.7376C29.6288 27.1131 30.2125 27.1956 30.7792 27.2382L30.8917 25.7424ZM42.8405 32.0576C42.4818 28.9012 39.8482 26.4376 36.6724 26.1774L36.5499 27.6724C39.0396 27.8764 41.0754 29.8099 41.35 32.2269L42.8405 32.0576ZM40.7508 33.7948C41.7705 34.062 42.9715 33.2988 42.8411 32.0635L41.3494 32.221C41.3518 32.2434 41.348 32.2557 41.3441 32.2643C41.3391 32.2752 41.3283 32.2915 41.3068 32.3082C41.2602 32.3444 41.1937 32.3602 41.131 32.3438L40.7508 33.7948ZM30.7062 31.143C30.3009 31.036 30.1321 30.5259 30.4315 30.1995L31.5368 31.2136C32.0158 30.6916 31.753 29.8679 31.0891 29.6927L30.7062 31.143ZM36.3628 31.085C35.9151 30.9668 35.437 31.0411 35.0465 31.2915L35.8562 32.5542C35.8916 32.5315 35.9369 32.5239 35.98 32.5353L36.3628 31.085Z" fill="white"/>
</g>
<defs>
<filter id="filter0_d_22_45" x="0" y="0" width="68" height="68" filterUnits="userSpaceOnUse" color-interpolation-filters="sRGB">
<feFlood flood-opacity="0" result="BackgroundImageFix"/>
<feColorMatrix in="SourceAlpha" type="matrix" values="0 0 0 0 0 0 0 0 0 0 0 0 0 0 0 0 0 0 127 0" result="hardAlpha"/>
<feOffset dy="4"/>
<feGaussianBlur stdDeviation="8"/>
<feComposite in2="hardAlpha" operator="out"/>
<feColorMatrix type="matrix" values="0 0 0 0 0.0784314 0 0 0 0 0.643137 0 0 0 0 0.301961 0 0 0 0.15 0"/>
<feBlend mode="normal" in2="BackgroundImageFix" result="effect1_dropShadow_22_45"/>
<feBlend mode="normal" in="SourceGraphic" in2="effect1_dropShadow_22_45" result="shape"/>
</filter>
</defs>
</svg>
