<svg height="503" viewBox="0 0 2725 503" width="2725" xmlns="http://www.w3.org/2000/svg"><path d="m251.46 0h-140.93l-.27.49-19.45 35.43h160.65c119 0 215.53 96.5 215.53 215.54s-96.5 215.54-215.53 215.54-215.54-96.51-215.54-215.54c-.0097663-22.517393 3.5165191-44.896651 10.45-66.32h41.15c-29.1707829 72.085226-7.8307097 154.767505 52.58251 203.731341 60.413219 48.963836 145.722407 52.718881 210.204116 9.25253 64.481708-43.466351 93.004006-123.953843 70.279703-198.323329s-91.362492-125.1686689-169.126329-125.170542h-181.89l-19.71 35.91h201.6c63.329702.012884 118.86981 42.276399 135.764816 103.310898 16.895007 61.034499-9.006694 125.841985-63.315319 158.418425-54.308626 32.576441-123.678927 24.916833-169.571984-18.7235-45.893057-43.640332-57.0315757-112.53766-27.227513-168.415823h46.62c-31.117852 36.529953-32.623108 89.792055-3.618045 128.02116 29.005063 38.229106 80.704612 51.123829 124.265398 30.993848s67.244724-67.860352 56.92688-114.725054c-10.317843-46.864702-51.857177-80.235363-99.844233-80.209954h-222.84l-19.72 35.93c-5.90284684 21.612492-8.89591657 43.915906-8.9 66.32 0 138.87 112.58 251.46 251.46 251.46s251.46-112.59 251.46-251.46-112.59-251.46-251.46-251.46zm0 185.14c36.627525 0 66.32 29.692475 66.32 66.32s-29.692475 66.32-66.32 66.32-66.32-29.692475-66.32-66.32 29.692475-66.32 66.32-66.32zm361.99 71.63c0-69.86 46.87-118.94 117.16-118.94 43.33 0 78.7 19 97.27 50.85l-40.67 28.74c-12.83-20.35-32.28-30.07-55.27-30.07-38 0-63.22 27-63.22 69.42 0 42 25.2 69.41 63.22 69.41 23 0 42.44-10.17 55.27-30.51l40.67 28.74c-18.57 32.28-53.94 50.85-97.27 50.85-70.29 0-117.16-49.08-117.16-118.49zm222.07 0c0-65.44 46.43-118.94 118.5-118.94 72.51 0 118.49 53.5 118.49 118.94 0 65-46 118.49-118.49 118.49-72.02 0-118.5-53.5-118.5-118.49zm181.72 0c0-41.12-24.32-69.86-63.22-69.86s-63.23 28.74-63.23 69.86c0 40.67 24.32 69.41 63.23 69.41s63.22-28.74 63.22-69.41zm409.33-112.77-69 225.05h-58.26l-48.77-158.73-49.2 158.73h-58.34l-68.6-225.05h53.52l46.61 162.26 50.06-162.26h51.79l50.07 162.26 46.17-162.26zm757.94 0-69.06 225.05h-58.26l-48.77-158.73-49.2 158.73h-58.22l-68.62-225h53.52l46.61 162.26 50.01-162.31h51.79l50.07 162.26 46.18-162.26zm-596.51-.86v50.4c-8.18624-1.356523-16.46292-2.095274-24.76-2.21-39.35 0-60.13 19.9-60.13 66.76v111h-53.91v-225.09h53v37.6c11.06-26.08 35.37-41.56 66.32-41.56 6.62574-.129313 13.2217.920353 19.48 3.1zm223.79.86v202.5c0 75.61-42 117.16-116.29 117.16-38.46 0-73.83-11.49-95.06-31.39l24.32-39.35c19 15 43.77 22.55 67.65 22.55 41.56 0 66.32-23.43 66.32-69v-19.41c-12.82 24.76-40.23 39.79-73.4 39.79-47.75 0-77.81-30.06-77.81-84.89v-137.96h53.94v124.26c0 34.49 14.15 49.52 42.44 49.52 32.72 0 54.39-19.89 54.39-52.62v-121.16zm386.91-71.16c0-19.46 13.71-33.61 34.49-33.61 20.33 0 34 14.15 34 33.61s-13.71 33.6-34 33.6c-20.78 0-34.49-14.15-34.49-33.6zm7.52 71.18h53.94v225.05h-53.94zm81.08 188.35 29.18-34.05c17.68 19.46 45.1 30.95 73.84 30.95 25.64 0 39.79-9.72 39.79-23.87 0-11.94-8.85-19.45-31.39-24.76l-36.7-8.4c-46.87-11.05-66.76-32.72-66.76-63.67 0-41.56 34.48-70.74 92.85-70.74 39.79 0 72.95 13.7 92.4 35.82l-28.74 34.92c-19.45-16.8-41.56-24.76-65-24.76-25.2 0-37.58 9.29-37.58 23 0 10.61 7.51 17.24 31.39 22.54l38.91 9.29c47.3 10.61 64.55 32.27 64.55 63.22 0 44.66-34.49 73.4-94.17 73.4-44.65 0-82.23-16.8-102.57-42.89zm436.29-59.69h-167.59c5.75 36.26 29.62 55.71 66.32 55.71 25.2 0 46.42-9.28 62.78-28.3l32.28 31.84c-21.22 27.41-55.27 43.33-96.83 43.33-71.63 0-119.38-46.87-119.38-117.61 0-69.86 46-119.82 114.08-119.82 65.43 0 109.64 45.54 109.64 114.07-.00818 6.946727-.44233 13.886417-1.3 20.78zm-167.59-36.68h115c-2.65-33.17-23-51.29-55.26-51.29-33.19-.01-53.97 19-59.74 51.29z" fill="#0066f5"/></svg>