<svg viewBox="0 0 1000 1000" xmlns="http://www.w3.org/2000/svg"><rect fill="#5c2682" height="988" rx="39.46" width="988" x="6" y="6"/><g fill="#fff"><path d="m196.87 404.31v36.5h80.74v33.61h-80.74v65.51h-37.23v-169.22h128.84v33.6z"/><path d="m453.35 525.18a80.57 80.57 0 0 1 -15.35 9.55 79.17 79.17 0 0 1 -18.25 6 110 110 0 0 1 -22.24 2.06 87.58 87.58 0 0 1 -34.57-6.77 85.09 85.09 0 0 1 -27.56-18.49 84.22 84.22 0 0 1 -18.13-27.68 89.19 89.19 0 0 1 -6.53-34.09v-.48a88.3 88.3 0 0 1 6.53-34 87.17 87.17 0 0 1 18.13-27.79 84 84 0 0 1 27.8-18.86 90.51 90.51 0 0 1 35.82-6.82 112.67 112.67 0 0 1 21.63 1.93 91.35 91.35 0 0 1 17.77 5.32 77.62 77.62 0 0 1 14.75 8.22 100.4 100.4 0 0 1 12.57 10.64l-23.72 27.31a89.88 89.88 0 0 0 -20.19-14 51.49 51.49 0 0 0 -23.09-5.07 47.17 47.17 0 0 0 -19.7 4.11 46.57 46.57 0 0 0 -15.59 11.36 52.9 52.9 0 0 0 -10.15 16.8 57 57 0 0 0 -3.63 20.43v.48a58 58 0 0 0 3.63 20.55 54 54 0 0 0 10 16.92 46.53 46.53 0 0 0 35.41 15.71q14.51 0 24.54-5.32a94.82 94.82 0 0 0 19.94-14.5l23.69 23.93a121.63 121.63 0 0 1 -13.51 12.55z"/><path d="m629.09 539.93v-110.48l-47.63 72.28h-1l-47.14-71.55v109.75h-36.7v-169.22h40.12l44.48 71.56 44.48-71.56h40.13v169.22z"/><path d="m845.57 513.82a39.41 39.41 0 0 1 -12.79 14.5 60.1 60.1 0 0 1 -20 8.71 108.13 108.13 0 0 1 -26 2.9h-80.34v-169.22h78.43q26.05 0 40.89 11.85t14.85 31.91v.53a41.57 41.57 0 0 1 -1.81 12.81 39.93 39.93 0 0 1 -4.8 10 38.08 38.08 0 0 1 -7 7.86 46.59 46.59 0 0 1 -8.52 5.8q14.67 5.57 23.1 15.11t8.42 26.42v.48a44 44 0 0 1 -4.43 20.34zm-41.71-93.07q0-8.46-6.28-12.93t-18.13-4.47h-36.75v35.77h34.3q12.33 0 19.58-4.23t7.25-13.66zm9.43 67.69a16 16 0 0 0 -6.53-13.44q-6.53-4.95-21-5h-43v37.23h44.24q12.33 0 19.34-4.47t7-13.9z"/></g><path d="m847.22 648.36v82.86h-691.28v-43.58a39.27 39.27 0 0 1 39.28-39.28z" fill="#fab613"/><path d="m155.94 758.05h691.28v82.86h-652a39.27 39.27 0 0 1 -39.28-39.29z" fill="#fab613"/></svg>