<svg viewBox="0 0 1000 1000" xmlns="http://www.w3.org/2000/svg"><rect fill="#133f77" height="411.52" rx="29.97" width="988.13" x="5.94" y="294.24"/><path d="m126.29 433.52h75.65a.54.54 0 0 1 .52.69l-17.55 60.15a.54.54 0 0 1 -.52.39h-83.6a.69.69 0 0 1 -.63-1l25.63-59.94a.55.55 0 0 1 .5-.29z" fill="#78c2ed" stroke="#fff" stroke-miterlimit="10" stroke-width="1.188232"/><path d="m185.28 495.54 17.54-60.39a.22.22 0 0 1 .42 0l18 64.27a.13.13 0 0 1 0 .12l-17.5 60.38a.22.22 0 0 1 -.43 0l-18.06-64.26a.24.24 0 0 1 .03-.12z" fill="#123f76" stroke="#fff" stroke-miterlimit="10" stroke-width="1.194557"/><path d="m184.3 495.35-84-.36a.36.36 0 0 0 -.34.48l24.04 66.41a.37.37 0 0 0 .35.24l78.06-1.53a.37.37 0 0 0 .35-.46l-18.14-64.52a.35.35 0 0 0 -.32-.26z" fill="#0f9cda" stroke="#fff" stroke-miterlimit="10" stroke-width="1.188232"/><path d="m214.45 495.71h75.66a.55.55 0 0 1 .52.7l-17.55 60.15a.55.55 0 0 1 -.52.39h-83.56a.7.7 0 0 1 -.64-1l25.64-59.95a.56.56 0 0 1 .45-.29z" fill="#78c2ed" stroke="#fff" stroke-miterlimit="10" stroke-width="1.188232"/><path d="m273.45 557.73 17.55-60.39a.22.22 0 0 1 .43 0l18 64.27a.24.24 0 0 1 0 .12l-17.51 60.39a.22.22 0 0 1 -.42 0l-18.07-64.25a.2.2 0 0 1 .02-.14z" fill="#123f76" stroke="#fff" stroke-miterlimit="10" stroke-width="1.194557"/><path d="m272.47 557.54-84-.36a.36.36 0 0 0 -.34.49l24.06 66.4a.38.38 0 0 0 .35.24l78.07-1.53a.36.36 0 0 0 .34-.46l-18.14-64.52a.35.35 0 0 0 -.34-.26z" fill="#0f9cda" stroke="#fff" stroke-miterlimit="10" stroke-width="1.188232"/><path d="m215.05 370.69h75.65a.54.54 0 0 1 .52.69l-17.55 60.15a.55.55 0 0 1 -.52.39h-83.6a.69.69 0 0 1 -.63-1l25.63-59.92a.54.54 0 0 1 .5-.31z" fill="#78c2ed" stroke="#fff" stroke-miterlimit="10" stroke-width="1.188232"/><path d="m274 432.71 17.53-60.4a.22.22 0 0 1 .43 0l18 64.26a.29.29 0 0 1 0 .13l-17.5 60.38a.22.22 0 0 1 -.43 0l-18.03-64.25a.24.24 0 0 1 0-.12z" fill="#123f76" stroke="#fff" stroke-miterlimit="10" stroke-width="1.194557"/><path d="m273.06 432.51-84-.36a.36.36 0 0 0 -.34.49l24.07 66.41a.35.35 0 0 0 .35.23l78.06-1.53a.35.35 0 0 0 .34-.46l-18.13-64.51a.36.36 0 0 0 -.35-.27z" fill="#0f9cda" stroke="#fff" stroke-miterlimit="10" stroke-width="1.188232"/><g fill="#fff"><path d="m400.47 507.26c2.64-2.05 4.38-3.9 5.2-5.56a12.56 12.56 0 0 0 1.24-5.69v-69.23a15.68 15.68 0 0 0 -.83-5.75 25.61 25.61 0 0 0 -4-5.87h27a26.17 26.17 0 0 0 -4.62 5.87 13.28 13.28 0 0 0 -1.33 5.75v69.22a12.23 12.23 0 0 0 .3 2.81 14.66 14.66 0 0 0 1 2.82 12.75 12.75 0 0 0 1.83 2.8 22.06 22.06 0 0 0 3 2.82zm23.53-48.42 23.83-32.06a10.53 10.53 0 0 0 2.31-6.13c0-1.62-.94-3.45-2.8-5.49h27.1l-33.54 41.51q8.63 13 14.71 20.95t12.75 15.07a112.14 112.14 0 0 0 8.15 7.8 45.15 45.15 0 0 0 4.8 3.76 53.67 53.67 0 0 0 5 3h-20.31a10.75 10.75 0 0 1 -5-1.41q-6.08-2.43-18-19.42l-14.46-20.69z"/><path d="m538.52 475.58h-46.52a39.2 39.2 0 0 0 1 6.77 25.92 25.92 0 0 0 2.2 5.11q6.57 11.24 21 11.24a32.93 32.93 0 0 0 11.7-2.17 42.66 42.66 0 0 0 4.75-2q2.21-1.1 6.09-3.39l-9.47 16.1a39.68 39.68 0 0 1 -7.17 1.91 49.57 49.57 0 0 1 -7.54.51q-17.5 0-28.07-9.58t-10.57-25.42q0-14.69 9.48-24.39t23.81-9.71q14.22 0 21.82 8.94t7.49 26.08zm-30.07-25.29a14.11 14.11 0 0 0 -10.13 3.7q-3.9 3.7-5.12 10.73h29.16a14.24 14.24 0 0 0 -3.91-10.47 13.44 13.44 0 0 0 -10-3.96z"/><path d="m530.38 539.06 11.42-13.16a10.89 10.89 0 0 0 7.2 3.1 8.29 8.29 0 0 0 6.32-2.43 23.15 23.15 0 0 0 2.68-4 27.48 27.48 0 0 0 2.43-5.44l3.28-9.21-20.33-48.92q-3.64-8.83-5.22-11.13c-1.06-1.54-3.16-3.37-6.32-5.5l6.44.51a29.26 29.26 0 0 0 3-.19c1.14-.13 2.25-.28 3.35-.45a17.57 17.57 0 0 0 3.1-.77q2.55-1 4.38-1.79l19.45 48.61 12.89-33.65a23.82 23.82 0 0 0 1.79-6.9 5.67 5.67 0 0 0 -.67-2.69 12.42 12.42 0 0 0 -2.57-3.05h22l-33.3 78.8a65 65 0 0 1 -4.13 8.35q-7.43 12-24.92 12a45.06 45.06 0 0 1 -12.27-2.09z"/><path d="m600.25 490.91 3.28 2q2.07 1.28 4.14 2.3a59.72 59.72 0 0 0 9.41 3.19 38.21 38.21 0 0 0 9.3 1.28q6 0 9.36-2.3a7.17 7.17 0 0 0 3.4-6.26 7.32 7.32 0 0 0 -3.52-6.51 21.69 21.69 0 0 0 -3.41-1.66c-1.29-.52-3.56-1.28-6.8-2.3q-8.5-2.69-10.82-3.71a26.09 26.09 0 0 1 -5.59-3.7 16 16 0 0 1 -5.83-12.39q0-9.45 7.11-14.76t20-5.3a57.09 57.09 0 0 1 7.53.39l6.57 1.27v12.95c-1-.52-2.33-1.2-4.07-2a36 36 0 0 0 -5.72-2.17 22.23 22.23 0 0 0 -6.13-.89q-5.12 0-8 1.78a5.7 5.7 0 0 0 -2.86 5.11 6.44 6.44 0 0 0 .79 3.13 7.9 7.9 0 0 0 2.25 2.56 14 14 0 0 0 3.28 1.79c1.22.46 3.24 1.08 6.08 1.85a84.55 84.55 0 0 1 12.79 4.44 21.45 21.45 0 0 1 6.56 5.36q3.52 4.1 3.52 11a20.71 20.71 0 0 1 -6.87 16.06q-6.93 6.25-18 6.26a67.8 67.8 0 0 1 -11.91-.89l-6.8-1.41-3-.38z"/><path d="m652.39 451.31v-5.62q8.26-1 11.91-6.39t3.64-16.73v-1.57h7.17v21h16.65v13.8l-1.11-1a18.36 18.36 0 0 0 -2.28-1.86 9.71 9.71 0 0 0 -2.53-1.15 13.34 13.34 0 0 0 -3.7-.44h-7v35.12a35.1 35.1 0 0 0 .13 4 6.4 6.4 0 0 0 1 2.3 9.84 9.84 0 0 0 4.57 3.58 17 17 0 0 0 6.92 1.41l2.59-.13-8.68 11.37a41.6 41.6 0 0 1 -10.81-2.3 16.85 16.85 0 0 1 -6.69-5.1 15.26 15.26 0 0 1 -3-5.5 32.56 32.56 0 0 1 -.79-8.3v-36.49z"/><path d="m690.66 474.17q0-15.19 10.45-25.16t26.25-10q15.55 0 25.16 9.7t9.6 25.68q0 15.33-10.33 25.29t-26.25 10q-15.79 0-25.34-9.77t-9.54-25.74zm15.44-.89v1.15q0 10.6 6.26 17.69a19.7 19.7 0 0 0 15.37 7.09 16.5 16.5 0 0 0 13.67-6.84q5.28-6.83 5.29-17.56 0-11.12-5.84-18.14a18.69 18.69 0 0 0 -15.07-7 17.67 17.67 0 0 0 -14.21 6.51q-5.48 6.49-5.47 17.1z"/><path d="m766 442.62 4.74.13 5.83-.37a34.14 34.14 0 0 0 4.19-.85q1.77-.5 5.17-1.59v8.94a24.24 24.24 0 0 1 19.44-8.94q23.7 0 23.7 23.55v34.29a7.32 7.32 0 0 0 .24 1.92l.37 1.41a12.42 12.42 0 0 0 4.13 6.15h-24.81a11.19 11.19 0 0 0 3.89-4.61 23 23 0 0 0 1-7.81v-33.67q-1.11-9.87-12.94-9.86-7.94 0-11.84 4.09a8.49 8.49 0 0 0 -2.56 4 34.94 34.94 0 0 0 -.61 8v27.4a22 22 0 0 0 1 7.36 12.43 12.43 0 0 0 3.89 5.06h-24.46a22.94 22.94 0 0 0 1.94-2 8.74 8.74 0 0 0 .81-1.09 8.46 8.46 0 0 0 1.37-2.81l.38-3.32v-42.22a27.77 27.77 0 0 0 -.85-8.11 11.94 11.94 0 0 0 -4.02-5.05z"/><path d="m900.53 475.58h-46.53a39.2 39.2 0 0 0 1 6.77 25.92 25.92 0 0 0 2.2 5.11q6.57 11.24 21 11.24a32.93 32.93 0 0 0 11.7-2.17 42.66 42.66 0 0 0 4.75-2q2.19-1.1 6.09-3.39l-9.47 16.1a39.68 39.68 0 0 1 -7.17 1.91 49.57 49.57 0 0 1 -7.54.51q-17.51 0-28.07-9.58t-10.57-25.42q0-14.69 9.48-24.39t23.81-9.71q14.22 0 21.82 8.94t7.5 26.08zm-30.07-25.29a14.11 14.11 0 0 0 -10.13 3.7q-3.9 3.7-5.13 10.73h29.17a14.24 14.24 0 0 0 -3.91-10.47 13.44 13.44 0 0 0 -10-3.96z"/><path d="m400.84 627.86a23.9 23.9 0 0 0 3.22-2.87 13.41 13.41 0 0 0 1.83-2.62 12.82 12.82 0 0 0 1.27-5.75v-69.36a13.41 13.41 0 0 0 -1.1-5.68 23.62 23.62 0 0 0 -4.37-5.82h26.85q14.1 0 22.73 3.71a19.42 19.42 0 0 1 8.38 7 18.77 18.77 0 0 1 3 10.61 16.14 16.14 0 0 1 -4.49 11.75 17.18 17.18 0 0 1 -3.77 3.19 30.07 30.07 0 0 1 -5.71 2.56 39.19 39.19 0 0 1 7.53 1.78 19.94 19.94 0 0 1 5.35 3.2q8.38 6.64 8.38 18.26a28.4 28.4 0 0 1 -1.58 9.33 30 30 0 0 1 -4.49 8.43 29.1 29.1 0 0 1 -13.86 9.51q-8.39 2.76-23.45 2.75zm22-81.88v27.34a29.6 29.6 0 0 0 3.91.38q10.39 0 14.66-4a13.67 13.67 0 0 0 4.28-10.09q0-6.64-4.28-10.35t-12.21-3.7zm0 36.66v33a50.68 50.68 0 0 0 5.9 1.28 39.89 39.89 0 0 0 4.92.25q8.63 0 14.22-5a17.57 17.57 0 0 0 2.67-22.55 15 15 0 0 0 -8.32-5.74 42.5 42.5 0 0 0 -12.1-1.6z"/><path d="m481.28 578 10.21-15.32c2.76-.68 4.76-1.11 6-1.28a46.92 46.92 0 0 1 5.77-.26q12.27 0 18.71 5.5a12.58 12.58 0 0 1 3.89 5.23c.57 1.71.85 4.77.85 9.2v26.95a20.47 20.47 0 0 0 .61 6.07 5.43 5.43 0 0 0 2.68 2.91 13 13 0 0 0 6.19 1.15h2.68l-7.87 11.09a14.93 14.93 0 0 1 -4 .66 15.4 15.4 0 0 1 -10.45-4q-4.62-4.07-4.62-9.1v-21.8l-3.53 1.15-5.71 1.28a47.66 47.66 0 0 0 -10.81 4c-2.68 1.62-4 4.21-4 7.79a8.91 8.91 0 0 0 3.4 7.41q3.4 2.68 9.23 2.68a22.27 22.27 0 0 0 4.32-.41 50.94 50.94 0 0 0 5.89-1.63l-7.32 10.83q-3.16.9-5.53 1.35a23.31 23.31 0 0 1 -4.31.45 20 20 0 0 1 -14.71-6.4 20.63 20.63 0 0 1 -6.32-15q0-14.58 21-18.56l7.17-1.53q6.07-1.15 8.44-2.89a5.72 5.72 0 0 0 2.37-4.92 6.77 6.77 0 0 0 -2.73-5.76 12.18 12.18 0 0 0 -7.47-2.05 39.85 39.85 0 0 0 -6.2.64c-3.08.76-5.25 1.34-6.5 1.72s-3.68 1.36-7.33 2.85z"/><path d="m535.73 563.23 4.73.12 5.84-.36a36.39 36.39 0 0 0 4.19-.86c1.17-.32 2.9-.85 5.17-1.59v9a24.25 24.25 0 0 1 19.44-9q23.7 0 23.7 23.55v34.3a7.43 7.43 0 0 0 .24 1.92q.24.9.36 1.41a12.48 12.48 0 0 0 4.14 6.14h-24.8a11.06 11.06 0 0 0 3.89-4.61 22.64 22.64 0 0 0 1-7.81v-33.67q-1.11-9.85-12.94-9.86-7.93 0-11.84 4.1a8.56 8.56 0 0 0 -2.57 4 35.77 35.77 0 0 0 -.6 8v27.4a21.9 21.9 0 0 0 1 7.36 12.28 12.28 0 0 0 3.89 5.06h-24.48a20.07 20.07 0 0 0 1.93-2 8.66 8.66 0 0 0 .82-1.08 8.76 8.76 0 0 0 1.37-2.81l.38-3.33v-42.23a27.82 27.82 0 0 0 -.85-8.11 11.86 11.86 0 0 0 -4.01-5.04z"/><path d="m608.52 535.89 4.74.13a46.23 46.23 0 0 0 14.94-2.81v85.2a16.8 16.8 0 0 0 .55 3.32 11.76 11.76 0 0 0 1.22 3.38 12 12 0 0 0 2.73 2.75h-24.06a12.08 12.08 0 0 0 3.28-4.79 25.4 25.4 0 0 0 .85-7.6v-67.83a25.14 25.14 0 0 0 -.73-7.34 10.68 10.68 0 0 0 -3.52-4.41zm20.12 55 15-17.57q3.54-3.94 3.54-7c0-1-.69-2.25-2.06-3.7h22.84l-23.23 27.18 24.91 30.91a29.68 29.68 0 0 0 8.75 7.15h-16.18a13.61 13.61 0 0 1 -6.63-1.28q-2.25-1.27-5.17-5.37z"/></g><path d="m285 436.35h75.66a.55.55 0 0 1 .52.7l-17.58 60.15a.55.55 0 0 1 -.52.39h-83.6a.7.7 0 0 1 -.64-1l25.64-59.94a.53.53 0 0 1 .52-.3z" fill="#78c2ed" stroke="#fff" stroke-miterlimit="10" stroke-width="1.188232"/><path d="m344 498.37 17.5-60.37a.22.22 0 0 1 .43 0l18 64.27a.24.24 0 0 1 0 .12l-17.5 60.39a.22.22 0 0 1 -.43 0l-18-64.28a.29.29 0 0 1 0-.13z" fill="#123f76" stroke="#fff" stroke-miterlimit="10" stroke-width="1.194557"/><path d="m343 498.18-84-.36a.36.36 0 0 0 -.34.49l24.07 66.4a.35.35 0 0 0 .34.24l78.07-1.53a.35.35 0 0 0 .34-.46l-18.13-64.52a.38.38 0 0 0 -.35-.26z" fill="#0f9cda" stroke="#fff" stroke-miterlimit="10" stroke-width="1.188232"/></svg>