<svg viewBox="0 0 1000 1000" xmlns="http://www.w3.org/2000/svg"><path d="m980.22 451.1a13.17 13.17 0 0 1 6.29 1.65 11.83 11.83 0 0 1 4.78 4.73 13.06 13.06 0 0 1 1.71 6.42 12.92 12.92 0 0 1 -1.69 6.36 11.92 11.92 0 0 1 -4.73 4.74 12.9 12.9 0 0 1 -12.73 0 12 12 0 0 1 -4.74-4.74 12.83 12.83 0 0 1 0-12.78 11.79 11.79 0 0 1 4.79-4.73 13.11 13.11 0 0 1 6.32-1.65zm0 2.12a10.9 10.9 0 0 0 -5.22 1.38 9.91 9.91 0 0 0 -4 3.95 10.66 10.66 0 0 0 0 10.65 10 10 0 0 0 4 3.95 10.62 10.62 0 0 0 10.61 0 9.88 9.88 0 0 0 4-3.95 10.76 10.76 0 0 0 1.41-5.3 10.89 10.89 0 0 0 -1.43-5.35 9.91 9.91 0 0 0 -4-3.95 11 11 0 0 0 -5.37-1.38zm-5.61 17.78v-13.8h4.72a11.3 11.3 0 0 1 3.51.39 3.32 3.32 0 0 1 1.73 1.33 3.51 3.51 0 0 1 .65 2 3.65 3.65 0 0 1 -1.08 2.63 4.25 4.25 0 0 1 -2.86 1.26 3.5 3.5 0 0 1 1.17.73 15.09 15.09 0 0 1 2 2.73l1.68 2.69h-2.72l-1.22-2.17a11 11 0 0 0 -2.32-3.2 2.84 2.84 0 0 0 -1.78-.48h-1.3v5.89zm2.22-7.75h2.69a4.4 4.4 0 0 0 2.64-.57 1.89 1.89 0 0 0 .7-1.53 1.81 1.81 0 0 0 -.34-1.09 2 2 0 0 0 -.94-.72 6.89 6.89 0 0 0 -2.23-.24h-2.52z" fill="#58595b"/><circle cx="163.79" cy="419.82" fill="#f16522" r="38.4"/><circle cx="218.18" cy="588.76" fill="#f16522" r="38.4"/><circle cx="45.4" cy="552.93" fill="#f16522" r="38.4"/><circle cx="50.52" cy="475.49" fill="#f6921e" r="24.96"/><circle cx="229.06" cy="465.26" fill="#f6921e" r="24.96"/><circle cx="147.15" cy="621.4" fill="#f6921e" r="24.96"/><circle cx="88.27" cy="607.32" fill="#ffc10e" r="17.28"/><circle cx="245.7" cy="521.57" fill="#ffc10e" r="17.28"/><circle cx="92.11" cy="431.98" fill="#ffc10e" r="17.28"/><g fill="#58595b"><path d="m382.47 650v-194.12h20.75v24.53q7.38-14.12 19.5-21.68a50 50 0 0 1 27-7.56q27.57 0 44.29 19.26t16.71 51.07q0 32.38-16.36 51.43t-43.78 19.07q-15.75 0-27.44-7.35t-19.08-21.9v87.25zm21-128.54q0 22 11.84 35.24t31.37 13.3q19.06 0 30-12.13t10.93-33.67q0-24.11-10.93-37.8t-30.43-13.7q-19.92 0-31.34 13t-11.41 35.8z"/><path d="m651.38 455.88v130.53h-21.17v-23.68q-7.66 14.26-19.57 21.76a49.09 49.09 0 0 1 -26.64 7.51q-27.44 0-44.22-19.33t-16.78-51.17q0-32.24 16.3-51.29t43.59-19q16 0 27.78 7.35t19 21.89v-24.57zm-21.17 66.48q0-22.11-11.77-35.6t-30.71-13.48q-19.63 0-30.64 12.41t-11 34.67q0 23.68 11.07 36.52t31.41 12.84q19.5 0 30.57-12.48t11.07-34.88z"/><path d="m800.79 455.88v128.25q0 21.25-2.78 30.25a43 43 0 0 1 -9.19 16.11 55.07 55.07 0 0 1 -21.8 14.7q-12.88 4.81-29.59 4.81-29 0-45.2-13.55t-16.92-38.38h24.51v1.71q0 14.7 9.89 22.69t28 8q13.09 0 22.36-4.35a31 31 0 0 0 14.13-12.91 34.47 34.47 0 0 0 4.17-11.21q1.26-6.42 1.25-18.4v-22q-7.38 14-19.35 21.47a49.71 49.71 0 0 1 -26.88 7.49q-27.45 0-44.22-19.12t-16.78-50.79q0-32 16.29-50.71t43.59-18.76q15.88 0 27.86 7.35t18.94 21.61v-24.26zm-21.17 65.62q0-22-11.69-35.38t-30.78-13.41q-19.64 0-30.64 12.41t-11 34.67q0 23.69 11.07 36.52t31.42 12.84q19.5 0 30.57-12.62t11.05-35.03z"/><path d="m950.76 455.88v130.53h-21.17v-23.68q-7.65 14.27-19.59 21.76a49.09 49.09 0 0 1 -26.64 7.51q-27.45 0-44.22-19.33t-16.78-51.17q0-32.24 16.29-51.29t43.59-19q16 0 27.79 7.35t19 21.89v-24.57zm-21.17 66.48q0-22.11-11.76-35.6t-30.71-13.48q-19.64 0-30.64 12.41t-11 34.67q0 23.68 11.07 36.52t31.45 12.84q19.5 0 30.57-12.48t11.02-34.88z"/></g></svg>