<svg fill="none" height="900" viewBox="0 0 3749 900" width="3749" xmlns="http://www.w3.org/2000/svg"><path clip-rule="evenodd" d="m450.095 900c248.581 0 450.095-201.472 450.095-450s-201.514-450-450.095-450c-248.58 0-450.095 201.472-450.095 450s201.515 450 450.095 450zm162.437-214.502c-46.209 32.073-102.312 50.866-162.8 50.866-157.987 0-286.06-128.209-286.06-286.363s128.073-286.363 286.06-286.363 286.061 128.209 286.061 286.363c0 35.305-6.382 69.118-18.055 100.345-45.274-16.431-95.736-21.343-141.941-10.248 18.394-25.663 29.223-57.126 29.223-91.122 0-86.42-69.983-156.477-156.311-156.477-86.329 0-156.312 70.057-156.312 156.477s69.983 156.477 156.312 156.477c19.899 0 38.93-3.722 56.435-10.509 43.8 25.412 81.563 61.883 107.388 90.554zm148.943-38.835c-20.407 32.229-45.681 61.071-74.79 85.494-31.883-42.062-96.338-105.578-167.482-146.134 65.737-49.269 167.569-17.763 242.272 60.64z" fill="#3e2284" fill-rule="evenodd"/><g fill="#fff" opacity=".15"><path d="m863.082 270.786c-69.196-159.17-227.752-270.532216-412.354-270.786-186.745.256805-346.836 114.217-414.7273 276.349 40.8669 38.793 87.2233 71.858 137.7843 97.909 33.175-121.399 144.153-210.621 275.948-210.621 130.776 0 241.056 87.849 275.164 207.812 50.857-26.864 97.363-60.863 138.185-100.663z"/><path d="m602.285 419.672c-13.704-72.414-77.252-127.174-153.575-127.174-76.69 0-140.481 55.287-153.769 128.218 48.441 12.699 99.285 19.461 151.709 19.461 53.842 0 106.018-7.133 155.635-20.505z"/></g><g fill="#3e2284"><path d="m1347.15 218.023c-63.66 0-115.99 21.803-156.98 64.535-40.11 42.733-60.17 99.419-60.17 170.058 0 70.64 20.06 127.326 60.17 170.058 40.99 42.733 93.32 64.535 156.98 64.535 56.69 0 98.55-15.697 127.33-47.965v260.756h126.45v-673.256h-119.48v47.093c-27.9-37.5-72.38-55.814-134.3-55.814zm20.93 109.012c63.66 0 106.4 44.477 106.4 115.116v20.93c0 70.64-42.74 115.117-106.4 115.117-65.41 0-109.01-46.221-109.01-125.582 0-79.36 43.6-125.581 109.01-125.581z"/><path d="m2081.78 226.744h-127.33v254.651c0 52.326-28.77 87.21-76.74 87.21-47.96 0-72.38-28.779-72.38-85.465v-256.396h-127.33v283.43c0 110.756 62.79 177.035 166.57 177.035 54.94 0 94.19-18.314 116.86-54.942v45.349h120.35z"/><path d="m2225.42 2.61625c-63.66-3.488384-102.9 87.20935-54.07 130.81375 28.78 28.779 79.36 28.779 108.14 0 14.83-14.825 22.68-33.139 22.68-54.0696 0-42.7325-34.01-76.74415-76.75-76.74415zm63.67 224.12775h-127.33v450.872h127.33z"/><path d="m2816.85 0h-126.46v265.988c-27.91-32.267-70.64-47.965-127.32-47.965-63.67 0-115.99 21.803-156.98 64.535-40.12 42.733-60.18 99.419-60.18 170.058 0 70.64 20.06 127.326 60.18 170.058 40.99 42.733 93.31 64.535 156.98 64.535 60.17 0 109.01-23.546 134.3-55.814v46.221h119.48zm-232.85 327.035c63.66 0 106.39 44.477 106.39 115.116v20.058c0 72.384-42.73 115.117-106.39 115.117-65.41 0-109.02-45.349-109.02-124.71 0-79.36 43.61-125.581 109.02-125.581z"/><path d="m3074.44 218.023c-54.94 0-100.29 16.57-136.05 49.71-34.88 32.267-52.32 69.767-52.32 111.627l127.32 5.233c0-32.267 21.81-59.302 62.79-59.302 39.25 0 58.43 23.546 58.43 69.767v17.442l-80.23 4.36c-120.35 5.233-180.52 50.582-180.52 136.919s56.68 133.43 150 133.43c47.09 0 85.46-15.697 115.11-46.221v36.628h122.97v-278.197c0-118.605-65.41-181.396-187.5-181.396zm60.17 297.384c0 46.221-33.14 73.256-81.1 73.256-34.88 0-52.33-13.954-52.33-40.989 0-29.651 21.81-45.348 65.41-47.093l68.02-4.36z"/><path d="m3744.89 226.744h-144.76l-83.72 137.791-83.72-137.791h-144.77l138.66 223.256-140.41 227.616h144.77l85.47-140.407 86.33 140.407h145.64l-143.02-227.616z"/></g></svg>